<svg width="2502" height="1320" viewBox="0 0 2502 1320" fill="none" xmlns="http://www.w3.org/2000/svg">
<path d="M1997.57 442.278C2016.12 656.095 1679.29 860.148 1244.82 897.249C810.355 934.349 444.231 790.829 425.681 577.012C407.13 363.195 743.965 159.142 1178.43 122.042C1611.92 84.941 1979.02 227.485 1997.57 442.278Z" fill="#BBE6FB"/>
<path d="M1190.15 146.45C1024.17 143.521 830.858 209.911 686.361 271.42C671.716 314.379 662.929 360.266 662.929 408.107C662.929 661.953 892.367 867.959 1175.5 867.959C1458.64 867.959 1689.05 662.929 1689.05 408.107C1689.05 328.047 1665.62 251.894 1625.59 186.479C1510.38 168.905 1351.24 149.379 1190.15 146.45Z" fill="white"/>
<path d="M1176.48 146.45C1084.7 140.592 926.539 188.432 794.734 236.272C774.231 283.136 763.491 334.882 763.491 389.556C763.491 612.16 965.592 792.781 1178.43 792.781C1390.3 792.781 1577.75 612.16 1593.37 389.556C1598.25 317.308 1573.85 248.965 1538.7 190.385C1402.99 166.953 1258.49 152.308 1176.48 146.45Z" fill="white"/>
<path d="M941.183 361.243C952.899 335.858 969.497 324.142 986.095 303.639C984.142 298.758 980.237 282.16 980.237 277.278C980.237 251.894 1000.74 232.367 1025.15 232.367C1031.01 232.367 1036.86 233.343 1041.75 235.296C1116.92 177.692 1215.53 153.284 1315.12 175.74C1323.91 177.692 1332.69 180.621 1341.48 182.574C1243.85 168.905 1132.54 204.053 1057.37 264.586C1059.32 270.444 1066.15 285.089 1066.15 291.923C1066.15 317.308 1049.56 323.166 1025.15 323.166C1019.29 323.166 1014.41 322.189 1008.55 320.237C991.952 342.692 970.473 386.627 960.71 413.965C1002.69 451.065 1039.79 464.734 1088.61 483.284C1088.61 481.331 1090.56 478.402 1090.56 476.45C1090.56 401.272 1156.95 339.763 1232.13 339.763C1299.5 339.763 1356.12 388.58 1366.86 453.018C1401.04 431.539 1433.25 414.941 1457.66 383.698C1451.8 376.864 1445.95 356.361 1445.95 346.598C1445.95 324.142 1464.5 305.592 1486.95 305.592C1489.88 305.592 1492.81 305.592 1496.72 306.568C1509.41 280.207 1519.17 252.87 1525.03 224.556C1406.89 136.687 1178.43 149.379 1178.43 149.379C1178.43 149.379 996.834 139.616 873.816 200.148C882.603 256.775 906.035 313.403 941.183 361.243Z" fill="#373535"/>
<path d="M1505.5 327.071C1514.29 334.882 1518.2 340.74 1522.1 347.574C1532.84 367.101 1511.36 385.651 1487.93 385.651C1485.98 385.651 1483.05 385.651 1481.09 384.675C1455.71 424.704 1410.8 475.473 1370.77 501.834C1432.28 511.598 1489.88 536.006 1534.79 574.083C1567.99 514.527 1593.37 427.633 1593.37 354.408C1593.37 298.758 1568.96 257.752 1531.86 227.485C1530.89 257.752 1514.29 299.734 1505.5 327.071ZM1009.53 705.888C1030.03 649.26 1079.82 606.302 1127.66 568.225C1120.83 558.462 1110.09 535.03 1106.18 524.29C1048.58 506.716 997.811 473.521 957.781 430.562C957.781 431.539 956.805 433.491 956.805 434.468C948.994 467.663 948.018 501.834 951.923 534.053C979.26 538.935 1000.74 563.343 1000.74 592.633C1000.74 610.207 985.118 634.616 973.402 646.332C985.118 671.716 993.905 685.385 1009.53 705.888Z" fill="#373535"/>
<path d="M1005.62 752.752C981.213 728.343 964.615 680.503 948.994 650.237C946.065 650.237 943.136 651.213 940.207 651.213C907.012 651.213 872.84 623.876 880.651 591.657C884.556 574.083 897.249 562.367 916.775 552.604C911.894 515.503 910.917 463.757 919.704 425.68C921.657 414.941 927.515 410.059 930.444 399.32C894.32 346.598 870.888 276.302 870.888 206.982V199.172C809.379 230.414 763.491 278.254 763.491 354.408C763.491 523.314 861.124 689.29 1005.62 753.728V752.752ZM1361.98 519.408C1343.43 572.13 1292.66 611.183 1233.11 611.183C1200.89 611.183 1171.6 600.444 1149.14 581.893C1101.3 618.994 1057.37 684.408 1035.89 742.012C1045.65 752.751 1052.49 761.538 1064.2 771.302C1097.4 780.089 1144.26 771.302 1180.38 771.302C1325.86 771.302 1455.71 706.864 1529.91 592.633C1479.14 557.485 1420.56 524.29 1361.98 519.408Z" fill="#373535"/>
<path d="M937.278 380.769C948.994 355.385 962.663 332.929 979.26 311.45C977.308 306.568 976.331 300.71 976.331 295.828C976.331 270.444 996.834 250.917 1021.24 250.917C1027.1 250.917 1032.96 251.893 1037.84 253.846C1113.02 196.243 1211.63 171.834 1311.21 194.29C1320 196.243 1328.79 199.172 1337.57 201.124C1239.94 187.456 1138.4 217.722 1063.22 278.254C1065.18 284.112 1067.13 289.97 1067.13 295.828C1067.13 321.213 1046.63 340.74 1022.22 340.74C1016.36 340.74 1011.48 339.763 1005.62 337.811C989.024 360.266 974.379 385.651 964.615 412.988C1000.74 451.065 1044.67 482.308 1093.49 499.882V493.047C1093.49 417.87 1155 356.361 1230.18 356.361C1297.54 356.361 1354.17 405.177 1364.91 469.615C1399.08 448.136 1428.37 420.799 1453.76 388.58C1447.9 381.745 1443.99 372.959 1443.99 363.195C1443.99 340.74 1462.54 322.189 1485 322.189C1487.93 322.189 1490.86 322.189 1494.76 323.166C1507.46 296.805 1517.22 269.467 1523.08 241.154C1404.94 153.284 1176.48 165.976 1176.48 165.976C1176.48 165.976 994.882 156.213 871.864 216.745C878.698 276.302 902.13 332.929 937.278 380.769Z" fill="#1287B1"/>
<path d="M1511.36 333.905C1520.15 341.716 1525.03 352.456 1525.03 364.172C1525.03 386.627 1506.48 405.178 1484.02 405.178C1482.07 405.178 1479.14 405.178 1477.19 404.201C1451.8 444.231 1417.63 478.402 1377.6 503.787C1436.18 512.574 1491.83 537.959 1537.72 576.036C1570.92 516.479 1590.44 447.16 1590.44 373.935C1590.44 318.284 1566.04 277.278 1528.93 247.012C1526.98 277.278 1521.12 306.568 1511.36 333.905ZM1015.38 718.58C1035.89 661.953 1071.04 612.16 1118.88 574.083C1112.04 564.32 1106.18 554.556 1102.28 542.84C1044.67 525.266 993.905 492.071 953.876 449.113C953.876 450.089 952.899 452.042 952.899 453.018C945.089 486.213 944.112 520.385 948.018 552.604C975.355 557.485 996.834 581.894 996.834 611.184C996.834 628.758 989.024 644.379 977.308 655.118C987.071 677.574 1000.74 699.053 1015.38 718.58Z" fill="#1287B1"/>
<path d="M1005.62 751.775C981.213 727.367 960.71 700.03 945.089 669.763C942.16 669.763 939.231 670.74 936.302 670.74C903.107 670.74 876.746 644.379 876.746 611.183C876.746 587.751 890.414 567.248 909.941 557.485C905.059 520.385 907.012 483.284 915.799 445.207C917.752 434.467 921.657 423.728 924.586 412.988C888.462 360.266 866.982 295.828 866.982 226.509V218.698C805.474 249.941 759.586 297.781 759.586 373.935C759.586 542.84 860.148 688.314 1004.65 752.752C1005.62 752.752 1005.62 752.751 1005.62 751.775ZM1358.08 538.935C1339.53 591.657 1288.76 630.71 1229.2 630.71C1196.98 630.71 1167.69 619.97 1145.24 601.42C1097.4 638.521 1061.27 689.29 1038.82 746.893C1048.58 757.633 1059.32 767.396 1070.06 777.16C1103.25 785.947 1138.4 790.828 1174.53 790.828C1320 790.828 1448.88 715.651 1523.08 601.42C1474.26 566.272 1416.66 543.817 1358.08 538.935Z" fill="#1287B1"/>
<path d="M1362.96 503.787L1488.91 473.521L1361.98 466.686L1465.47 388.58L1348.31 430.562L1427.4 320.237L1317.07 393.462L1355.15 264.586L1279.97 371.006L1278.02 236.272L1228.22 356.361L1187.22 235.296L1189.17 377.84L1117.9 249.941L1156.95 385.651L1040.77 301.686L1131.57 415.917L987.071 363.195L1100.33 447.16L954.852 452.041L1104.23 490.118L954.852 522.337L1102.28 533.077L978.284 612.16L1106.18 566.272L1017.34 678.55L1129.62 587.752L1089.59 738.107L1176.48 615.089L1164.76 759.586L1213.58 627.781L1255.56 765.444L1265.33 626.805L1327.81 744.941L1290.71 610.207L1403.96 698.077L1330.74 585.799L1455.71 634.615L1360.03 540.888L1487.93 550.651L1362.96 503.787Z" fill="white"/>
<path d="M18.5503 744.941C410.059 353.432 722.485 232.367 1006.6 177.692C1043.7 170.858 1051.51 87.8699 1051.51 87.8699C1051.51 87.8699 1056.39 148.402 1082.75 156.213C1109.11 164.024 1143.28 61.509 1143.28 61.509C1143.28 61.509 1112.04 153.284 1143.28 159.142C1174.53 164.024 1233.11 69.3197 1233.11 69.3197C1233.11 69.3197 1209.67 150.355 1225.3 156.213C1240.92 161.095 1320 38.077 1320 38.077C1320 38.077 1273.14 119.113 1317.07 127.9C1361.98 135.71 1427.4 72.2486 1427.4 72.2486C1427.4 72.2486 1376.63 129.852 1399.08 138.639C1496.72 172.811 1574.82 46.864 1574.82 46.864C1574.82 46.864 1556.27 102.515 1509.41 163.047C1611.92 189.408 1688.08 35.1481 1688.08 35.1481L1611.92 189.408C1650.98 208.935 1808.17 27.3374 1808.17 27.3374C1808.17 27.3374 1727.13 168.905 1679.29 198.195C1705.65 219.675 1800.35 134.734 1800.35 134.734C1800.35 134.734 1724.2 229.438 1753.49 234.32C1795.47 268.491 1950.71 58.58 1950.71 58.58C1950.71 58.58 1890.18 182.574 1801.33 279.231C1875.53 317.308 2061.04 78.1066 2061.04 78.1066C2061.04 78.1066 2056.15 154.26 1921.42 275.326C2021.01 262.633 2149.88 73.225 2149.88 73.225C2149.88 73.225 2103.02 214.793 1989.76 315.355C2087.4 305.592 2244.59 63.4617 2244.59 63.4617C2244.59 63.4617 2184.05 231.391 2061.04 329.024C2197.72 359.29 2394.94 155.237 2394.94 155.237C2394.94 155.237 2317.81 299.734 2216.27 359.29C2329.53 402.249 2484.76 223.58 2484.76 223.58C2484.76 223.58 2329.53 462.781 2082.51 452.042C2001.48 448.136 1756.42 206.006 1231.15 225.533C536.006 250.917 389.556 545.769 18.5503 744.941Z" fill="#373535" fill-opacity="0.35"/>
<path d="M34.1716 715.651C425.68 324.142 738.106 203.077 1022.22 148.402C1059.32 141.568 1067.13 58.5799 1067.13 58.5799C1067.13 58.5799 1072.01 119.112 1098.37 126.923C1124.73 134.734 1158.91 32.2189 1158.91 32.2189C1158.91 32.2189 1127.66 123.994 1158.91 129.852C1190.15 134.734 1248.73 40.0296 1248.73 40.0296C1248.73 40.0296 1225.3 121.065 1240.92 126.923C1256.54 131.805 1335.62 8.78698 1335.62 8.78698C1335.62 8.78698 1288.76 89.8225 1332.69 98.6095C1377.6 106.42 1443.02 42.9586 1443.02 42.9586C1443.02 42.9586 1392.25 100.562 1414.7 109.349C1512.34 143.521 1590.44 17.574 1590.44 17.574C1590.44 17.574 1571.89 73.2248 1525.03 133.757C1627.54 160.118 1703.7 5.85799 1703.7 5.85799L1627.54 160.118C1666.6 181.598 1824.76 0 1824.76 0C1824.76 0 1743.73 141.568 1695.89 170.858C1722.25 189.408 1816.95 105.444 1816.95 105.444C1816.95 105.444 1740.8 200.148 1770.09 205.03C1812.07 239.201 1967.31 29.2899 1967.31 29.2899C1967.31 29.2899 1905.8 153.284 1816.95 249.941C1891.15 287.041 2077.63 47.8402 2077.63 47.8402C2077.63 47.8402 2072.75 123.994 1938.02 245.059C2037.6 232.367 2166.48 42.9586 2166.48 42.9586C2166.48 42.9586 2119.62 184.527 2006.36 285.089C2103.99 275.325 2261.18 33.1953 2261.18 33.1953C2261.18 33.1953 2200.65 201.124 2077.63 298.757C2214.32 329.024 2411.54 124.97 2411.54 124.97C2411.54 124.97 2334.41 269.467 2232.87 329.024C2346.12 371.982 2501.36 193.314 2501.36 193.314C2501.36 193.314 2346.12 432.515 2099.11 421.775C2018.08 417.87 1773.02 175.74 1247.75 195.266C552.604 221.627 405.178 515.503 34.1716 715.651Z" fill="#373535"/>
<path d="M8.78711 787.899C215.769 891.39 405.178 772.278 643.402 839.645C825 890.414 1045.65 953.876 1345.38 909.941C1645.12 866.982 1900.92 736.154 2023.93 503.787C2062.01 400.296 2217.25 527.219 2217.25 527.219C2217.25 527.219 2103.99 480.355 2106.92 501.834C2109.85 524.29 2276.8 601.42 2276.8 601.42C2276.8 601.42 2125.47 554.556 2135.24 589.704C2144.02 624.852 2324.64 767.396 2324.64 767.396C2324.64 767.396 2118.64 613.136 2102.04 634.615C2084.47 656.095 2188.93 741.035 2188.93 741.035C2188.93 741.035 2017.1 634.615 1956.57 665.858C1912.63 688.314 2135.24 833.787 2135.24 833.787C2135.24 833.787 1990.74 723.461 1956.57 752.751C1922.4 782.041 2119.62 1018.31 2119.62 1018.31C2119.62 1018.31 1895.06 776.183 1872.6 787.899C1850.15 799.615 1934.11 915.799 1934.11 915.799C1934.11 915.799 1824.76 794.734 1794.5 815.237C1764.23 836.716 1952.66 1150.12 1952.66 1150.12C1952.66 1150.12 1748.61 828.905 1663.67 882.603C1795.47 1172.57 1746.66 1213.58 1746.66 1213.58C1746.66 1213.58 1730.06 917.751 1565.06 925.562C1482.07 929.467 1604.11 1146.21 1604.11 1146.21C1604.11 1146.21 1491.83 948.018 1416.66 951.923C1554.32 1213.58 1505.5 1319.02 1505.5 1319.02C1505.5 1319.02 1527.96 1095.44 1341.48 971.45C1412.75 1034.91 1296.57 1319.02 1296.57 1319.02C1296.57 1319.02 1398.11 900.177 1221.39 980.237C1193.08 992.929 1219.44 1189.17 1219.44 1189.17C1219.44 1189.17 1184.29 964.615 1130.59 976.331C1099.35 983.166 933.373 1287.78 933.373 1287.78C933.373 1287.78 1069.08 958.757 1028.08 972.426C997.811 982.189 941.184 1117.9 941.184 1117.9C941.184 1117.9 968.521 984.142 941.184 976.331C913.846 968.521 759.586 1117.9 759.586 1117.9C759.586 1117.9 873.817 984.142 854.29 955.828C824.024 913.846 789.852 911.893 747.87 928.491C687.337 951.923 606.302 1062.25 606.302 1062.25C606.302 1062.25 687.337 949.97 673.669 908.964C651.213 841.598 417.87 1038.82 417.87 1038.82C417.87 1038.82 555.533 908.964 524.29 880.651C493.047 853.314 321.213 861.124 268.491 861.124C111.302 863.077 56.6273 825.976 8.78711 787.899Z" fill="#373535" fill-opacity="0.35"/>
<path d="M0 764.467C206.982 867.959 396.391 748.846 634.615 816.213C816.213 866.982 1036.86 930.444 1336.6 886.509C1636.33 843.55 1892.13 712.722 2015.15 480.355C2053.23 376.864 2208.46 503.787 2208.46 503.787C2208.46 503.787 2095.21 456.923 2098.14 478.402C2101.07 500.858 2268.02 577.988 2268.02 577.988C2268.02 577.988 2116.69 531.124 2126.45 566.272C2135.24 601.42 2315.86 743.964 2315.86 743.964C2315.86 743.964 2111.8 588.728 2095.21 610.207C2078.61 631.686 2182.1 716.627 2182.1 716.627C2182.1 716.627 2010.27 610.207 1949.73 641.45C1905.8 663.905 2128.4 809.379 2128.4 809.379C2128.4 809.379 1983.91 699.053 1949.73 728.343C1915.56 757.633 2112.78 993.905 2112.78 993.905C2112.78 993.905 1889.2 751.775 1866.75 763.491C1844.29 775.207 1928.25 891.39 1928.25 891.39C1928.25 891.39 1816.95 771.302 1786.69 791.805C1756.42 813.284 1943.88 1126.69 1943.88 1126.69C1943.88 1126.69 1739.82 804.497 1655.86 858.195C1788.64 1149.14 1738.85 1190.15 1738.85 1190.15C1738.85 1190.15 1722.25 894.319 1557.25 902.13C1474.26 906.035 1596.3 1122.78 1596.3 1122.78C1596.3 1122.78 1485 925.562 1409.82 929.467C1547.49 1191.12 1498.67 1296.57 1498.67 1296.57C1498.67 1296.57 1521.12 1072.99 1334.65 948.994C1405.92 1012.46 1289.73 1296.57 1289.73 1296.57C1289.73 1296.57 1391.27 877.722 1214.56 957.781C1186.24 970.473 1212.6 1166.72 1212.6 1166.72C1212.6 1166.72 1177.46 942.16 1123.76 953.876C1092.51 960.71 926.539 1265.33 926.539 1265.33C926.539 1265.33 1062.25 936.302 1021.24 949.97C990.976 959.734 934.349 1095.44 934.349 1095.44C934.349 1095.44 961.686 961.686 934.349 953.876C907.012 946.065 752.752 1095.44 752.752 1095.44C752.752 1095.44 866.982 961.686 847.456 933.373C817.189 891.391 783.018 889.438 741.036 906.035C680.503 929.467 599.467 1039.79 599.467 1039.79C599.467 1039.79 680.503 927.515 666.834 886.509C644.379 819.142 411.036 1016.36 411.036 1016.36C411.036 1016.36 548.698 886.509 517.456 858.195C486.213 830.858 314.379 838.669 261.657 838.669C102.515 839.645 47.8402 802.544 0 764.467Z" fill="#373535"/>
</svg>
