<svg width="77" height="30" viewBox="0 0 77 30" fill="none" xmlns="http://www.w3.org/2000/svg">
<path d="M18.2773 0C15.2703 0 12.3864 1.21005 10.2602 3.36396L3.32083 10.3934C1.19454 12.5473 0 15.4686 0 18.5147C0 24.8579 5.07622 30 11.3381 30C14.3451 30 17.2289 28.7899 19.3552 26.636L24.1552 21.7737C24.1553 21.7738 24.1552 21.7736 24.1552 21.7737L38.1407 7.6066C39.1562 6.57791 40.5335 6 41.9696 6C44.374 6 46.4124 7.58741 47.1192 9.78407L51.5329 5.31296C49.5194 2.11834 45.9887 0 41.9696 0C38.9626 0 36.0787 1.21005 33.9525 3.36396L15.167 22.3934C14.1515 23.4221 12.7742 24 11.3381 24C8.34743 24 5.92308 21.5442 5.92308 18.5147C5.92308 17.0599 6.49358 15.6647 7.50908 14.636L14.4484 7.6066C15.4639 6.57791 16.8412 6 18.2773 6C20.6818 6 22.7201 7.58748 23.4269 9.78421L27.8407 5.31307C25.8272 2.1184 22.2965 0 18.2773 0Z" fill="#EAB308"/>
<path d="M38.8593 22.3934C37.8438 23.4221 36.4665 24 35.0304 24C32.6263 24 30.5881 22.413 29.8811 20.2167L25.4675 24.6877C27.4811 27.8819 31.0116 30 35.0304 30C38.0374 30 40.9213 28.7899 43.0476 26.636L61.833 7.6066C62.8485 6.57791 64.2258 6 65.662 6C68.6526 6 71.0769 8.45584 71.0769 11.4853C71.0769 12.9401 70.5064 14.3353 69.4909 15.364L62.5517 22.3934C61.5361 23.4221 60.1588 24 58.7227 24C56.3184 24 54.2801 22.4127 53.5733 20.2162L49.1596 24.6873C51.1731 27.8818 54.7037 30 58.7227 30C61.7297 30 64.6136 28.7899 66.7399 26.636L73.6791 19.6066C75.8054 17.4527 77 14.5314 77 11.4853C77 5.14214 71.9238 0 65.662 0C62.6549 0 59.7711 1.21005 57.6448 3.36396L38.8593 22.3934Z" fill="#EAB308"/>
</svg>
