<svg width="1970" height="1594" viewBox="0 0 1970 1594" fill="none" xmlns="http://www.w3.org/2000/svg">
<path d="M1335.91 507.045L1118.3 578.321L928.77 662.017L875.853 676.056C862.354 689.016 848.314 701.975 832.655 714.934C815.916 729.514 800.257 742.473 788.377 752.193C774.878 762.992 755.439 782.431 745.18 794.85C730.06 813.75 718.181 833.729 713.321 848.848C704.142 876.386 708.461 904.465 726.281 930.384C748.419 963.322 793.237 996.8 845.075 1019.48C871.533 1031.36 916.351 1045.94 949.829 1054.58C1005.45 1068.62 1113.44 1084.28 1172.84 1086.44C1184.72 1086.98 1200.92 1086.98 1201.46 1086.44C1202.54 1085.36 1212.26 1068.08 1222.52 1045.94C1259.23 971.422 1285.15 901.225 1299.73 841.828C1308.37 805.65 1314.85 757.592 1319.71 700.355C1320.79 684.156 1321.33 630.699 1320.25 612.88C1318.63 583.181 1315.93 559.422 1312.15 535.664C1311.61 532.424 1311.07 529.184 1311.61 529.184C1312.15 528.644 1314.31 528.104 1341.31 520.544L1335.91 507.045ZM1286.23 536.204C1288.39 536.204 1293.25 586.961 1294.87 618.819C1295.41 625.299 1294.87 630.159 1294.87 630.159C1293.79 630.159 1267.33 614.5 1247.89 602.62C1231.7 592.361 1200.38 571.302 1195.52 567.522C1193.9 566.442 1193.9 566.442 1207.4 561.582C1230.08 553.483 1284.07 536.204 1286.23 536.204ZM1175 572.922C1176.62 572.922 1180.4 575.082 1189.58 580.481C1223.6 601.54 1269.49 627.459 1289.47 636.098C1295.41 638.798 1295.95 637.718 1282.45 647.438C1252.75 667.957 1214.96 687.936 1169.6 707.915C1161.5 711.695 1155.02 714.395 1154.48 714.395C1153.94 714.395 1155.02 710.075 1156.64 705.215C1167.44 664.177 1173.92 622.599 1174.46 589.661C1173.38 572.922 1173.38 572.922 1175 572.922ZM1152.32 581.561C1153.4 582.641 1152.86 619.359 1151.24 629.619C1148.54 653.378 1143.68 676.056 1136.12 701.435C1134.5 707.375 1132.88 712.775 1132.34 712.775C1131.8 713.855 1109.12 691.716 1101.56 683.076C1088.6 668.497 1078.88 653.378 1071.32 638.798C1067.54 631.239 1061.6 616.659 1062.14 616.659C1064.84 614.5 1151.78 581.021 1152.32 581.561ZM1044.86 623.679C1045.94 624.219 1047.02 626.919 1047.56 629.619C1052.96 644.198 1064.84 665.257 1075.1 678.216C1086.44 692.796 1101.02 708.995 1112.9 719.254C1116.68 722.494 1120.46 725.734 1121 726.274C1122.08 727.354 1122.08 727.354 1095.62 737.073C1064.3 748.953 1030.83 760.832 991.947 773.252C982.768 776.491 973.588 779.191 964.409 782.431C962.789 782.971 963.329 781.891 967.648 775.412C987.087 745.173 1016.25 686.316 1032.45 644.198C1035.14 637.178 1037.84 629.619 1038.38 627.999C1038.92 625.839 1040 624.759 1042.16 623.679C1043.24 624.219 1044.32 623.679 1044.86 623.679ZM1011.93 637.178C1012.47 637.718 1003.83 654.998 995.727 671.197C979.528 702.515 962.249 732.754 939.03 770.012C935.25 776.491 931.47 782.431 930.93 782.971C929.85 784.051 929.85 784.051 927.15 778.651C921.751 767.852 916.891 753.273 914.731 740.313C912.031 727.354 912.571 705.215 915.811 691.176C917.971 680.916 917.971 680.916 922.831 678.756C942.81 668.497 1010.85 636.638 1011.93 637.178ZM1295.41 649.058V656.077C1295.41 692.796 1291.63 743.013 1285.69 779.731C1284.61 786.211 1284.07 791.611 1283.53 791.611C1283.53 791.611 1278.67 790.531 1273.27 788.911C1248.43 781.351 1221.98 770.012 1197.68 756.512C1181.48 747.873 1158.26 733.294 1159.34 732.754C1159.34 732.754 1166.36 728.974 1174.46 724.654C1206.86 707.915 1237.63 689.556 1264.63 671.737C1274.89 665.257 1290.01 653.918 1293.25 651.218L1295.41 649.058ZM887.732 697.655C888.272 697.655 888.272 698.735 887.192 704.675C886.652 708.995 885.573 717.094 885.573 722.494C884.493 746.253 888.272 764.072 900.152 788.371C903.392 794.85 906.091 800.79 906.091 800.79C905.012 801.87 795.937 833.729 761.919 842.908C751.659 845.608 743.02 848.308 741.94 848.308C740.86 848.848 740.86 848.308 740.86 845.608C744.64 821.309 762.999 789.991 788.917 762.992C806.197 745.173 819.696 734.914 842.915 721.414C859.654 712.775 885.033 698.195 887.732 697.655C887.192 697.655 887.192 697.655 887.732 697.655ZM1144.22 743.553C1144.22 743.553 1148.54 745.713 1152.86 748.413C1187.96 768.932 1237.09 787.831 1278.67 797.55L1282.45 798.63L1277.05 801.33C1254.91 813.75 1183.1 843.448 1109.66 870.987C1098.86 874.766 1088.6 879.086 1086.44 879.626C1084.28 880.706 1082.66 880.706 1082.66 880.706C1082.66 880.706 1085.36 874.767 1089.14 867.747C1109.66 829.409 1130.18 782.431 1140.98 750.033C1143.14 746.253 1144.22 743.553 1144.22 743.553ZM1118.3 752.193C1118.3 752.193 1117.22 755.972 1115.6 759.752C1101.02 794.311 1082.66 832.109 1058.36 874.766C1052.42 885.566 1047.02 894.206 1047.02 894.206C1047.02 894.206 1042.16 891.506 1036.22 887.726C1001.13 866.127 970.348 840.208 950.369 814.29L947.669 810.51L962.789 806.19C1016.25 791.611 1062.14 775.951 1107.5 756.512C1112.36 754.353 1117.76 752.193 1118.3 752.193ZM1280.83 808.89C1280.83 812.67 1272.73 846.688 1265.71 870.987C1259.77 891.506 1254.91 907.705 1245.73 936.323C1241.95 948.743 1238.17 959.002 1238.17 959.002C1238.17 959.002 1237.09 959.002 1236.01 958.462C1187.42 949.823 1143.14 937.403 1102.1 920.664C1090.76 915.804 1074.02 908.785 1072.94 907.705C1072.4 907.165 1082.66 902.845 1095.08 897.445C1170.14 864.507 1247.35 827.789 1274.35 811.59C1277.59 809.97 1280.29 808.89 1280.83 808.89ZM905.552 821.849C906.092 822.389 885.033 852.088 855.874 893.126C845.615 907.705 833.735 924.444 829.415 930.384C825.096 936.863 818.076 946.583 814.296 952.523L807.277 963.322L799.717 956.842C791.077 949.823 775.958 934.163 768.938 925.524C754.899 907.705 745.18 889.346 741.4 872.607C739.78 864.507 739.78 860.727 741.4 860.187C744.1 859.647 787.838 849.388 828.875 839.668C851.554 834.269 878.013 828.329 887.732 825.629C897.452 823.469 905.012 821.849 905.552 821.849ZM926.61 829.949L932.01 835.888C955.769 862.347 980.068 881.786 1009.23 899.065C1014.63 901.765 1018.41 904.465 1017.87 905.005C1016.79 906.085 916.351 941.723 869.373 957.382C843.455 966.562 821.856 974.121 821.316 974.121L818.076 971.962L815.376 969.802L820.236 962.782C835.895 940.643 855.334 915.804 897.452 865.047L926.61 829.949ZM1057.82 923.904C1057.82 923.904 1065.38 926.604 1074.02 929.844C1095.62 937.943 1112.36 942.803 1135.04 948.743C1163.12 955.762 1203.62 962.782 1227.38 964.942C1231.16 965.482 1232.78 965.482 1232.24 966.022C1231.16 966.562 1206.86 974.661 1189.04 980.601C1160.96 989.241 1074.56 1015.16 1003.83 1035.14C990.867 1038.92 979.528 1042.16 978.988 1042.16C977.368 1042.7 971.968 1041.08 971.968 1040.54C971.968 1040 975.748 1035.14 980.608 1029.74C1004.37 1001.66 1027.59 969.802 1047.56 940.103C1052.96 930.384 1057.82 923.904 1057.82 923.904ZM1028.67 924.444C1028.67 924.444 1017.33 943.343 996.807 975.741C988.167 989.241 978.448 1004.9 974.668 1010.3C971.428 1015.7 966.569 1023.8 963.869 1028.66L959.009 1037.3L956.309 1036.76C950.369 1035.14 908.791 1020.56 897.992 1016.24C884.493 1010.84 870.453 1004.36 859.654 998.42C846.695 991.401 829.955 980.601 831.575 980.601C832.115 980.601 854.254 974.122 881.793 967.102C953.609 947.663 993.567 936.323 1020.03 927.684C1024.35 925.524 1028.67 924.444 1028.67 924.444ZM1233.32 972.502C1234.4 974.122 1207.4 1048.1 1197.68 1071.32C1195.52 1076.72 1194.98 1077.8 1193.36 1077.8C1190.66 1077.8 1151.78 1072.4 1128.56 1068.62C1087.52 1062.14 1018.95 1050.26 1001.67 1046.48L997.887 1045.4L1022.19 1040C1075.1 1028.12 1099.94 1021.64 1125.86 1014.08C1158.26 1004.36 1190.12 991.941 1222.52 976.821C1227.92 974.661 1232.24 972.502 1233.32 972.502Z" fill="url(#paint0_linear_16_36)"/>
<path d="M1111.28 0.0101789C1107.5 -0.529794 1049.18 20.5291 1011.39 35.6484C960.629 56.1673 921.211 76.1464 896.912 93.4255C887.732 99.9052 876.393 111.245 874.773 115.564C874.233 117.184 873.693 119.344 873.693 120.964L895.832 142.023L948.209 158.762L1072.94 180.901L1215.5 205.2L1217.12 192.78H1216.04L1197.14 190.081L1193.36 183.601C1173.92 149.583 1152.32 106.925 1139.9 78.3062C1130.18 56.1674 1121 30.2486 1116.14 11.8896C1113.44 0.550136 1112.9 0.0101789 1111.28 0.0101789ZM1108.58 8.10977C1109.12 8.10977 1109.66 12.9695 1110.2 18.3693C1112.9 41.5881 1118.3 63.727 1126.4 87.4858C1132.34 105.845 1132.34 104.765 1125.32 102.605C1108.58 97.7453 1033.53 84.7859 978.988 77.2263C970.348 76.1464 962.789 75.0664 962.789 74.5265C962.249 73.9865 1002.21 52.9275 1019.49 44.8279C1042.16 34.5685 1104.26 9.18972 1108.58 8.10977ZM949.829 82.086L956.309 84.2459C991.407 96.1253 1078.88 112.864 1127.48 116.644C1132.88 117.184 1137.74 117.724 1137.74 117.724C1137.74 117.724 1133.42 120.424 1127.48 123.124C1104.26 135.003 1078.34 149.043 1060.52 160.382C1055.12 163.622 1050.26 166.322 1049.72 166.322C1049.18 166.322 1045.4 165.782 1042.16 165.242L1035.68 164.162L1019.49 147.963C990.327 119.884 967.648 98.2852 959.009 89.6457L949.829 82.086ZM943.35 86.9458L966.569 116.104C978.988 132.304 991.947 147.423 994.647 151.203C997.347 154.442 999.507 157.682 999.507 157.682C998.967 158.222 966.029 151.743 948.749 147.963C930.93 143.643 923.371 142.023 912.571 138.243L903.392 135.543V133.383C903.392 122.584 917.431 105.845 941.19 89.1057L943.35 86.9458ZM1140.44 126.364C1140.98 126.364 1142.06 127.984 1143.68 132.304C1149.08 144.723 1166.9 177.661 1171.22 184.141C1172.3 186.301 1175 186.301 1151.78 182.521C1096.16 173.341 1078.34 170.642 1078.34 170.102C1078.34 170.102 1079.96 169.022 1082.12 167.402C1099.4 157.682 1116.68 145.803 1132.34 132.843C1136.12 129.604 1139.36 126.904 1140.44 126.364Z" fill="url(#paint1_linear_16_36)"/>
<path d="M875.853 112.865C875.853 112.865 872.073 118.804 875.853 127.444C878.013 132.843 884.493 139.323 891.512 145.803C891.512 145.803 964.949 217.079 973.588 227.339C1014.09 274.316 1031.91 320.214 1033.53 383.391C1034.61 424.429 1027.05 460.067 1007.61 501.645C973.588 576.161 901.232 658.777 789.997 750.032L806.197 744.633C816.456 736.533 831.035 728.434 864.514 710.074C942.27 667.417 1029.21 628.539 1136.12 588.581C1290.01 530.804 1543.26 462.767 1687.43 440.628L1702.55 438.468L1700.39 434.688C1687.43 414.169 1678.25 401.75 1667.45 388.251C1636.13 348.833 1597.8 317.514 1550.82 291.056C1486.56 254.877 1402.87 226.799 1297.03 205.74C1277.05 201.96 1233.32 194.4 1197.68 189.001C1122.08 177.121 1073.48 169.022 1020.03 159.842C1000.59 156.602 971.968 151.743 953.069 147.423C943.35 145.263 924.451 140.943 909.331 135.543C896.372 131.764 879.633 126.904 875.853 112.865ZM918.511 154.442C918.511 154.442 921.211 155.522 924.991 156.602C931.47 158.762 939.57 161.462 948.749 163.622C955.769 165.782 963.329 167.402 970.348 169.562C980.068 172.261 988.707 174.421 988.707 174.421C989.787 175.501 1006.53 228.959 1011.93 248.938C1014.09 256.497 1015.71 263.517 1015.71 263.517C1015.71 263.517 1013.55 260.817 1011.39 257.037C991.947 223.019 961.709 189.001 926.61 160.922C921.751 157.142 918.511 154.442 918.511 154.442ZM999.507 176.581C1000.59 176.581 1003.83 177.121 1008.15 178.201C1036.22 184.681 1086.44 193.86 1118.3 199.26C1123.7 200.34 1128.02 200.88 1128.02 201.42C1128.02 201.96 1125.86 203.04 1123.7 204.12C1118.3 206.82 1096.16 219.779 1089.14 224.639C1070.78 237.058 1054.58 250.018 1042.7 261.897L1034.07 270.537C1034.07 270.537 1032.99 267.837 1032.45 264.057C1026.51 241.378 1014.09 207.36 1002.75 183.601C1000.59 180.361 998.967 176.581 999.507 176.581C998.967 176.581 998.967 176.581 999.507 176.581ZM1141.52 203.58C1142.6 204.12 1144.22 209.52 1147.46 221.939C1153.4 245.698 1156.1 272.696 1155.56 297.535C1155.02 304.555 1155.02 311.035 1154.48 311.574L1153.94 313.194L1145.3 310.495C1127.48 305.095 1098.86 296.455 1074.56 289.436C1060.52 285.656 1049.18 282.416 1049.18 281.876C1049.18 280.796 1069.7 260.277 1078.34 252.717C1095.08 238.138 1140.44 203.04 1141.52 203.58ZM1152.86 205.2C1153.4 204.66 1220.9 216.539 1251.67 222.479C1274.35 226.799 1307.83 233.818 1309.99 234.898C1311.07 235.438 1307.29 237.058 1296.49 241.918C1253.29 261.357 1220.9 279.176 1188.5 300.235C1179.86 305.635 1172.84 310.495 1172.84 310.495C1172.84 310.495 1172.3 305.635 1172.3 300.235C1172.3 268.917 1165.82 237.598 1154.48 210.6C1153.94 207.9 1152.86 205.74 1152.86 205.2ZM1327.81 239.758C1328.35 240.298 1326.19 253.797 1324.03 261.357C1318.09 285.656 1301.89 322.374 1282.45 356.392C1279.21 362.332 1275.97 367.192 1275.43 367.732C1274.89 367.732 1270.57 365.572 1265.71 362.332C1246.81 350.993 1224.68 340.733 1201.46 331.014C1194.98 328.314 1189.04 326.154 1189.04 325.614C1187.96 324.534 1240.87 289.436 1268.95 272.696C1291.09 259.197 1327.27 239.218 1327.81 239.758ZM1340.23 241.918C1341.85 241.918 1371.55 250.018 1387.21 254.877C1426.09 266.217 1470.36 282.416 1498.98 295.915L1510.86 301.315L1502.22 303.475C1431.49 319.674 1371.01 338.573 1312.69 362.332C1307.83 364.492 1303.51 366.112 1303.51 366.112C1302.97 366.112 1304.59 362.332 1306.75 357.472C1324.57 320.214 1335.91 281.336 1338.61 247.858C1339.69 244.618 1340.23 241.918 1340.23 241.918ZM1042.16 310.495C1042.7 309.955 1065.38 315.354 1077.8 319.134C1096.7 324.534 1136.12 337.493 1136.12 338.573C1136.12 338.573 1131.8 342.353 1126.4 347.213C1104.8 365.032 1084.28 383.931 1059.44 408.23C1051.88 415.249 1045.94 421.189 1045.4 421.189C1044.86 421.189 1044.86 420.109 1044.86 419.029C1048.64 391.491 1047.56 355.852 1042.7 319.674C1042.7 314.274 1042.16 310.495 1042.16 310.495ZM1522.74 311.035C1523.28 311.575 1511.94 328.314 1505.46 338.033C1495.74 352.073 1481.16 370.972 1448.22 412.009C1430.95 433.608 1411.51 458.447 1405.03 466.547C1398.55 474.646 1393.15 481.666 1392.61 481.666C1392.61 481.666 1390.45 478.966 1387.75 475.186C1369.39 447.648 1347.25 423.349 1321.33 401.75C1316.47 397.43 1311.07 393.11 1308.91 392.031C1307.29 390.951 1305.67 389.331 1305.67 389.331C1305.67 388.791 1333.75 376.911 1354.81 368.272C1392.07 353.152 1442.82 334.793 1480.62 323.454C1501.14 316.434 1522.74 310.495 1522.74 311.035ZM1535.7 314.274C1536.24 314.274 1540.56 315.894 1544.88 319.134C1584.84 341.813 1624.26 371.511 1655.03 401.75C1663.67 410.39 1685.27 432.528 1684.73 433.068C1684.73 433.068 1677.17 433.608 1668.53 434.148C1599.42 439.548 1510.86 454.127 1425.55 474.646C1419.61 475.726 1414.75 477.346 1414.21 477.346C1413.67 477.346 1420.15 470.867 1428.25 463.307C1478.46 415.249 1501.14 384.471 1528.14 330.474C1531.92 321.294 1535.16 314.814 1535.7 314.274C1535.16 314.274 1535.16 314.274 1535.7 314.274ZM1169.06 351.533C1171.22 352.073 1192.82 362.332 1209.02 369.892C1223.6 377.451 1246.27 389.331 1247.35 389.871C1247.35 389.871 1239.79 394.19 1230.08 399.05C1199.3 414.709 1172.84 429.289 1144.76 446.028C1136.66 450.888 1130.18 454.667 1130.18 454.667C1129.64 454.667 1129.64 454.127 1133.96 446.028C1148.54 419.029 1160.42 386.631 1167.44 355.312C1167.98 353.152 1168.52 351.533 1169.06 351.533ZM1148 355.852C1148.54 356.392 1143.14 376.371 1139.36 387.711C1132.88 408.77 1121 434.688 1110.2 454.667C1107.5 459.527 1103.72 466.007 1101.56 469.787L1097.24 476.266L1088.06 467.627C1077.26 457.367 1068.62 450.887 1057.28 444.948C1052.96 442.788 1049.18 440.628 1049.18 440.088C1049.18 439.008 1077.26 413.089 1098.86 394.73C1114.52 381.231 1147.46 355.312 1148 355.852ZM1278.67 409.31L1286.77 414.709C1305.13 426.589 1326.73 442.788 1343.47 456.827C1352.65 464.387 1371.01 480.586 1374.79 484.906L1376.95 487.066L1363.45 490.845C1287.85 511.904 1230.08 530.264 1162.04 555.102C1154.48 557.802 1148 559.962 1147.46 559.962C1146.38 559.962 1145.84 561.042 1162.58 545.383C1205.78 505.425 1244.65 461.147 1273.27 418.489L1278.67 409.31ZM1244.11 417.949C1244.65 418.489 1221.98 449.808 1208.48 468.167C1192.28 489.766 1163.66 525.404 1144.22 548.623C1136.12 558.342 1129.1 566.442 1128.56 566.442C1128.02 566.442 1128.02 564.282 1128.02 560.502C1128.02 540.523 1123.16 519.464 1113.98 501.105C1110.2 493.545 1109.66 491.925 1110.2 490.845C1113.44 488.146 1160.96 460.607 1191.74 444.408C1211.72 433.608 1243.57 417.409 1244.11 417.949ZM1036.22 468.707C1036.76 468.707 1040.54 470.867 1044.86 473.026C1055.12 478.966 1064.84 485.446 1072.94 491.925C1073.48 492.465 1069.16 495.705 1063.22 500.025C1047.56 511.365 1023.81 529.184 1010.31 539.983C995.727 551.322 995.187 551.862 996.807 549.163C1007.61 532.423 1013.01 523.244 1018.95 511.364C1023.81 500.565 1029.21 488.146 1032.99 476.806C1034.07 472.486 1035.69 468.707 1036.22 468.707ZM1091.84 512.444C1092.92 512.444 1093.46 513.524 1098.32 520.544C1107.5 534.583 1115.06 553.482 1116.68 568.602L1117.22 571.841L1094.54 580.481C1054.04 596.14 1016.79 611.799 991.947 623.139C984.928 626.379 972.508 632.318 964.409 636.098C956.309 640.418 949.829 643.118 949.829 643.118C949.829 643.118 954.689 639.338 961.169 634.478C1010.31 598.84 1052.96 559.422 1084.82 520.544C1088.06 516.224 1091.3 512.444 1091.84 512.444ZM1066.46 518.384C1067 518.924 1048.1 540.523 1035.68 553.482C1003.83 585.881 972.508 611.259 933.63 636.098C928.77 639.338 924.451 642.038 923.911 642.578C922.831 643.118 924.451 641.498 941.19 623.139C951.989 611.259 960.089 601.54 969.808 589.661C976.288 581.561 977.368 580.481 986.007 574.001C1009.77 555.642 1065.38 517.844 1066.46 518.384Z" fill="url(#paint2_radial_16_36)"/>
<path d="M353.699 1199.83C350.459 1199.83 347.759 1200.37 344.52 1200.37C282.963 1203.61 241.925 1230.61 217.626 1283.53C197.107 1331.04 199.267 1393.68 217.626 1441.2C239.225 1488.18 274.323 1513.01 332.64 1522.19C345.06 1524.35 353.159 1530.83 377.458 1558.91L407.157 1593.47H460.614L424.976 1557.83C405.537 1538.39 389.337 1521.11 389.337 1519.49C389.337 1517.87 396.897 1514.63 406.077 1511.93C436.315 1502.75 461.154 1479.54 478.433 1443.9C492.472 1415.28 494.632 1406.64 496.792 1371C502.192 1265.17 446.575 1199.29 353.699 1199.83ZM400.677 1476.3C374.758 1488.72 336.96 1491.42 312.121 1482.24C286.743 1473.06 261.904 1446.6 250.564 1416.36C238.145 1383.42 239.765 1322.94 254.344 1295.95C277.023 1252.75 307.262 1232.77 350.999 1232.77C415.796 1232.77 453.054 1272.73 457.914 1347.24C461.694 1409.88 440.635 1456.86 400.677 1476.3ZM1324.57 1290.01C1301.89 1290.01 1285.15 1299.19 1273.27 1317L1264.09 1331.04V1294.33H1225.22V1515.17H1264.09V1444.44C1264.09 1379.64 1264.63 1372.08 1273.81 1354.8C1286.23 1330.5 1307.83 1318.62 1328.35 1324.02L1342.39 1327.8V1289.47L1324.57 1290.01ZM1096.7 1287.85C1089.14 1287.85 1081.04 1288.93 1072.94 1290.55C1021.11 1304.04 991.947 1353.72 993.567 1405.02C993.567 1447.68 1001.67 1469.28 1022.73 1491.96C1064.84 1526.51 1103.18 1529.21 1155.02 1510.85C1163.66 1507.07 1173.38 1502.75 1173.38 1502.75V1468.2L1155.02 1477.92C1113.44 1496.28 1081.58 1496.28 1056.2 1474.68C1040 1458.48 1032.98 1438.5 1029.75 1416.36H1186.34V1386.66C1186.34 1325.64 1149.62 1287.31 1096.7 1287.85ZM1033.53 1385.04C1033.53 1385.04 1039.46 1347.24 1060.52 1332.12C1070.78 1325.1 1082.66 1321.32 1094.54 1321.32C1106.42 1321.32 1117.76 1325.1 1127.48 1332.66C1146.92 1347.78 1150.7 1385.04 1150.7 1385.04H1033.53ZM97.2121 1345.08C55.0942 1319.7 36.1952 1301.35 38.895 1279.75C45.3747 1219.81 119.351 1227.91 160.389 1250.59L160.929 1210.09C160.929 1210.09 138.25 1200.37 105.852 1199.83C56.1741 1199.29 23.7758 1215.49 8.65653 1248.97C-13.4824 1298.11 5.95669 1335.36 77.2331 1376.4C117.191 1399.62 135.01 1419.6 135.01 1441.74C135.01 1487.1 80.4729 1502.75 23.7758 1474.68C11.8964 1468.74 2.17688 1463.88 1.6369 1463.88C-0.522987 1476.84 0.556934 1507.61 0.556934 1507.61C0.556934 1507.61 17.8361 1514.63 43.7548 1520.03C108.552 1532.99 166.869 1502.76 172.808 1453.62C177.128 1407.18 160.389 1382.88 97.2121 1345.08ZM1668.53 1287.85C1660.97 1287.85 1652.87 1288.93 1644.77 1290.55C1592.94 1304.04 1563.78 1353.72 1565.4 1405.02C1565.4 1447.68 1573.5 1469.28 1594.56 1491.42C1636.67 1525.97 1675.01 1529.21 1727.39 1510.31C1736.03 1506.53 1745.75 1502.22 1745.75 1502.22V1467.66L1727.39 1477.38C1685.27 1495.74 1653.95 1495.74 1628.58 1474.14C1612.38 1457.94 1605.36 1438.5 1602.12 1415.82H1758.17V1386.12C1758.17 1325.1 1721.45 1286.77 1668.53 1287.85ZM1604.82 1384.5C1604.82 1384.5 1610.76 1346.7 1631.81 1331.58C1642.07 1324.02 1653.95 1320.78 1665.29 1320.78C1676.63 1320.78 1688.51 1324.56 1698.23 1332.12C1717.67 1347.24 1721.45 1384.5 1721.45 1384.5H1604.82ZM893.132 1345.62C851.014 1320.24 832.655 1301.89 834.815 1280.29C841.295 1220.35 915.271 1228.45 956.309 1251.13L956.849 1210.63C956.849 1210.63 934.17 1200.91 901.772 1200.37C852.094 1199.83 819.696 1216.03 804.577 1249.51C782.438 1298.65 802.417 1335.9 873.153 1376.94C913.111 1400.16 930.39 1420.14 930.39 1441.74C930.39 1487.1 875.853 1503.29 819.156 1474.68C807.816 1468.74 797.557 1463.88 797.017 1463.88C794.857 1476.84 795.937 1507.61 795.937 1507.61C795.937 1507.61 813.216 1514.63 839.135 1520.03C903.932 1532.99 962.249 1502.76 968.188 1453.62C973.048 1407.72 956.309 1383.42 893.132 1345.62ZM1896.4 1289.47C1873.72 1289.47 1856.44 1298.65 1845.1 1316.46L1835.92 1330.5V1293.79H1797.05V1514.63H1835.92V1444.44C1835.92 1379.64 1836.46 1372.08 1845.64 1354.8C1858.06 1330.5 1879.66 1318.62 1900.18 1324.56L1914.22 1328.34V1290.01L1896.4 1289.47ZM584.268 1344.54V1203.61H545.39V1515.17H710.081V1478.46H584.808L584.268 1344.54ZM1489.8 1388.28L1457.4 1471.98L1426.63 1387.74L1395.31 1294.33H1355.35C1381.27 1367.76 1409.35 1442.82 1437.96 1515.17C1450.38 1515.71 1462.8 1515.17 1475.22 1515.17L1518.96 1405.56L1563.24 1293.79H1524.9C1524.36 1294.33 1507.62 1338.6 1489.8 1388.28ZM674.983 1118.83C681.463 1118.83 686.323 1116.67 690.642 1112.35C694.962 1108.03 697.122 1103.18 697.122 1096.7C697.122 1090.22 694.962 1085.36 690.642 1081.04C686.323 1077.26 681.463 1075.1 674.983 1075.1C668.503 1075.1 663.104 1077.26 659.324 1081.58C655.004 1085.9 652.844 1091.3 652.844 1097.24C652.844 1103.72 655.004 1109.11 659.324 1112.89C663.104 1116.67 668.503 1118.83 674.983 1118.83ZM660.944 1082.66C664.724 1078.88 669.043 1077.26 674.983 1077.26C680.383 1077.26 685.243 1078.88 689.022 1082.66C692.802 1086.44 694.962 1090.76 694.962 1096.7C694.962 1102.1 692.802 1106.95 689.022 1110.73C685.243 1114.51 680.383 1116.13 674.983 1116.13C669.583 1116.13 664.724 1114.51 660.944 1110.73C657.164 1106.95 655.004 1102.1 655.004 1096.7C655.544 1091.3 657.164 1086.44 660.944 1082.66ZM670.123 1098.86H672.823C674.443 1098.86 676.603 1100.48 677.683 1103.71L680.923 1110.73H685.783L682.003 1103.17C680.383 1099.94 678.763 1098.32 677.143 1097.78C679.303 1097.24 680.923 1096.7 682.543 1095.08C683.623 1094 684.163 1091.84 684.163 1090.22C684.163 1088.06 683.623 1086.44 682.003 1084.82C680.383 1083.2 677.683 1082.66 673.903 1082.66H665.804V1110.73H669.583L670.123 1098.86ZM670.123 1085.9H673.903C676.603 1085.9 678.223 1086.44 679.303 1086.98C680.383 1087.52 680.383 1088.6 680.383 1090.76C680.383 1094 678.223 1095.62 674.443 1095.62H670.123V1085.9ZM23.7758 1096.16C23.7758 1086.44 23.2358 1078.88 23.2358 1074.56C24.3158 1079.42 25.3957 1083.2 26.4756 1085.9L64.2737 1169.59H70.7534L108.552 1084.82C109.631 1082.66 110.711 1078.88 111.791 1074.02H112.331C111.791 1082.66 111.251 1089.68 111.251 1095.62V1169.59H124.211V1059.44H108.012L72.9133 1136.65C71.8334 1139.89 69.6735 1144.21 67.5136 1150.15H66.9736C66.4336 1146.91 64.2737 1142.59 62.1138 1137.19L28.0956 1059.98H10.8164V1170.13H23.2358L23.7758 1096.16ZM151.749 1096.7H163.089V1165.27H151.749V1096.7ZM157.149 1071.32C159.309 1071.32 161.469 1070.78 163.089 1069.16C164.709 1067.54 165.789 1065.92 165.789 1063.22C165.789 1061.06 165.249 1058.9 163.089 1057.28C161.469 1055.66 159.309 1055.12 157.149 1055.12C154.989 1055.12 152.829 1055.66 151.209 1057.28C149.589 1058.9 148.51 1061.06 148.51 1063.22C148.51 1065.92 149.049 1067.54 151.209 1069.16C152.829 1070.78 154.989 1071.32 157.149 1071.32ZM241.925 1166.35V1154.47C235.985 1158.79 229.505 1161.49 222.486 1161.49C214.386 1161.49 207.907 1158.79 203.047 1153.39C198.187 1147.99 195.487 1140.97 195.487 1131.79C195.487 1122.07 198.187 1114.51 203.047 1109.11C207.907 1103.71 214.926 1101.02 222.486 1101.02C228.965 1101.02 235.445 1103.17 241.385 1106.95V1093.46C235.985 1090.76 230.045 1089.68 223.026 1089.68C210.606 1089.68 200.347 1093.46 193.327 1101.56C186.308 1109.11 182.528 1119.91 182.528 1132.87C182.528 1144.21 185.768 1153.93 192.787 1160.95C199.807 1168.51 208.987 1172.29 219.786 1172.29C228.965 1171.75 235.985 1170.13 241.925 1166.35ZM273.783 1130.17C273.783 1120.99 275.943 1113.97 279.723 1108.57C283.503 1104.25 287.283 1101.56 292.682 1101.56C297.002 1101.56 300.242 1102.1 302.402 1104.25V1091.3C300.782 1090.76 298.082 1090.22 294.842 1090.22C290.522 1090.22 286.203 1091.84 282.963 1094.54C279.183 1097.78 275.943 1102.1 274.323 1108.03H273.783V1091.84H261.364V1170.67H273.783V1130.17ZM346.14 1171.75C358.019 1171.75 367.739 1167.97 374.758 1160.41C381.778 1152.85 385.558 1142.59 385.558 1130.17C385.558 1117.21 382.318 1107.49 375.838 1099.94C369.358 1092.38 360.179 1089.14 348.3 1089.14C336.42 1089.14 326.701 1092.92 319.681 1099.4C312.121 1106.95 308.341 1117.75 308.341 1131.25C308.341 1143.13 311.581 1152.85 318.601 1160.41C325.081 1167.97 334.26 1171.75 346.14 1171.75ZM328.32 1108.03C333.18 1103.18 339.66 1100.48 347.22 1100.48C355.319 1100.48 361.259 1103.18 366.119 1108.03C370.438 1113.43 373.138 1120.99 373.138 1130.71C373.138 1140.43 370.978 1147.99 366.659 1152.85C362.339 1158.25 355.859 1160.95 347.76 1160.95C339.66 1160.95 333.18 1158.25 328.32 1152.85C323.461 1147.45 321.301 1140.43 321.301 1130.71C320.761 1120.99 322.921 1113.43 328.32 1108.03ZM440.095 1165.27C444.955 1160.95 447.654 1155.55 447.654 1149.07C447.654 1143.13 445.495 1138.27 441.715 1134.49C438.475 1131.25 434.155 1128.55 427.136 1125.85C421.196 1123.15 417.416 1120.99 415.256 1119.37C413.096 1117.21 412.016 1115.05 412.016 1111.27C412.016 1108.03 413.096 1105.33 415.796 1103.71C418.496 1101.56 421.736 1100.48 426.056 1100.48C433.075 1100.48 438.475 1102.09 443.875 1105.87V1093.46C439.015 1090.76 433.075 1089.68 427.136 1089.68C419.036 1089.68 412.016 1091.84 407.157 1096.16C401.757 1100.48 399.597 1105.87 399.597 1112.35C399.597 1118.29 401.217 1123.15 404.457 1126.39C407.157 1129.63 412.016 1132.33 418.496 1135.03C424.976 1137.73 429.295 1140.43 431.455 1142.59C433.615 1144.75 434.695 1146.91 434.695 1150.15C434.695 1157.71 429.835 1161.49 419.576 1161.49C412.016 1161.49 404.997 1158.79 399.057 1153.93V1167.43C404.457 1170.67 410.936 1172.29 418.496 1172.29C427.676 1171.75 435.235 1169.59 440.095 1165.27ZM500.032 1089.68C488.152 1089.68 478.433 1093.46 471.413 1099.94C463.854 1107.49 460.074 1118.29 460.074 1131.79C460.074 1143.67 463.314 1153.39 470.333 1160.95C477.353 1168.51 486.533 1172.29 498.412 1172.29C510.291 1172.29 520.011 1168.51 527.03 1160.95C534.05 1153.39 537.83 1143.13 537.83 1130.71C537.83 1117.75 534.59 1108.03 528.11 1100.48C521.091 1092.92 511.911 1089.68 500.032 1089.68ZM524.871 1130.71C524.871 1140.43 522.711 1147.99 518.391 1152.85C514.071 1158.25 507.592 1160.95 499.492 1160.95C491.392 1160.95 484.913 1158.25 480.053 1152.85C475.193 1147.45 473.033 1140.43 473.033 1130.71C473.033 1120.45 475.733 1112.89 480.593 1107.49C485.453 1102.64 491.932 1099.94 499.492 1099.94C507.052 1099.94 513.531 1102.64 517.851 1107.49C522.711 1112.89 524.871 1120.45 524.871 1130.71ZM558.889 1170.13H571.308V1102.1H589.667V1091.3H571.308V1079.42C571.308 1068.62 575.628 1062.68 584.268 1062.68C587.507 1062.68 590.207 1063.22 592.367 1064.84V1053.5C590.207 1052.42 586.968 1052.42 583.188 1052.42C576.168 1052.42 570.768 1054.58 566.449 1058.9C561.049 1063.76 558.349 1070.24 558.349 1079.42V1092.38H544.85V1103.17H558.349L558.889 1170.13ZM610.726 1148.53C610.726 1163.65 617.746 1171.75 631.245 1171.75C636.105 1171.75 639.885 1171.21 643.125 1169.05V1158.25C640.965 1159.87 638.265 1160.95 635.025 1160.95C630.705 1160.95 628.005 1159.87 625.846 1157.71C624.226 1155.55 623.146 1151.77 623.146 1146.37V1102.1H643.125V1091.3H623.146V1068.08C618.826 1069.7 614.506 1070.78 610.726 1071.86V1090.76H597.227V1101.56H610.726V1148.53ZM1963.36 1293.79C1959.04 1290.01 1954.18 1287.85 1947.7 1287.85C1941.22 1287.85 1935.82 1290.01 1932.04 1294.33C1927.72 1298.65 1925.56 1304.04 1925.56 1309.98C1925.56 1316.46 1927.72 1321.32 1932.04 1325.64C1936.36 1329.42 1941.76 1331.58 1947.7 1331.58C1954.18 1331.58 1959.04 1329.42 1963.36 1325.1C1967.68 1320.78 1969.84 1315.92 1969.84 1309.44C1970.38 1302.96 1967.68 1297.57 1963.36 1293.79ZM1961.74 1323.48C1957.96 1327.26 1953.64 1328.88 1947.7 1328.88C1942.3 1328.88 1937.44 1327.26 1933.66 1323.48C1929.88 1319.7 1927.72 1314.84 1927.72 1309.44C1927.72 1304.04 1929.34 1299.19 1933.12 1295.41C1936.9 1291.63 1941.22 1290.01 1947.16 1290.01C1952.56 1290.01 1957.42 1291.63 1961.2 1295.41C1964.98 1299.19 1967.14 1304.04 1967.14 1309.44C1967.14 1314.84 1965.52 1319.7 1961.74 1323.48ZM1950.4 1310.52C1952.56 1309.98 1954.18 1308.9 1955.8 1307.82C1956.88 1306.74 1957.42 1304.58 1957.42 1302.96C1957.42 1300.8 1956.88 1299.19 1955.26 1297.57C1953.64 1295.95 1950.94 1295.41 1947.16 1295.41H1939.06V1323.48H1942.84V1311.6H1945.54C1947.16 1311.6 1948.78 1313.22 1950.4 1316.46L1953.64 1323.48H1958.5L1954.72 1315.92C1953.1 1312.68 1951.48 1311.06 1950.4 1310.52ZM1947.7 1307.82H1943.38V1298.65H1947.16C1949.86 1298.65 1951.48 1299.19 1952.56 1299.73C1953.64 1300.27 1953.64 1301.34 1953.64 1303.5C1953.1 1306.74 1951.48 1307.82 1947.7 1307.82ZM1244.11 1088.06H1247.89V1059.98H1257.07V1056.2H1234.93V1059.98H1244.11V1088.06ZM1265.17 1067V1060.52C1265.17 1062.14 1265.71 1063.22 1266.25 1063.76L1277.05 1088.06H1278.67L1289.47 1063.76C1290.01 1063.22 1290.01 1062.14 1290.55 1060.52V1088.06H1294.33V1056.2H1290.01L1280.29 1078.34C1280.29 1078.88 1279.21 1080.5 1278.67 1082.66H1278.13C1278.13 1081.58 1277.59 1080.5 1276.51 1078.88L1266.79 1056.74H1261.93V1088.6H1265.71L1265.17 1067Z" fill="#D6D6D6"/>
<defs>
<linearGradient id="paint0_linear_16_36" x1="872.572" y1="978.949" x2="951.268" y2="932.449" gradientUnits="userSpaceOnUse">
<stop stop-color="#909CA9"/>
<stop offset="1" stop-color="#EDEDEE"/>
</linearGradient>
<linearGradient id="paint1_linear_16_36" x1="874.333" y1="102.805" x2="937.654" y2="102.805" gradientUnits="userSpaceOnUse">
<stop stop-color="#939FAB"/>
<stop offset="1" stop-color="#DCDEE1"/>
</linearGradient>
<radialGradient id="paint2_radial_16_36" cx="0" cy="0" r="1" gradientUnits="userSpaceOnUse" gradientTransform="translate(1193.56 392.821) rotate(-171.457) scale(81.6382 163.317)">
<stop stop-color="#EE352C"/>
<stop offset="1" stop-color="#A91D22"/>
</radialGradient>
</defs>
</svg>
